<?xml version="1.0" standalone="no"?>
<!DOCTYPE svg PUBLIC "-//W3C//DTD SVG 20010904//EN"
 "http://www.w3.org/TR/2001/REC-SVG-20010904/DTD/svg10.dtd">
<svg version="1.0" xmlns="http://www.w3.org/2000/svg"
 width="840.000000pt" height="859.000000pt" viewBox="0 0 840.000000 859.000000"
 preserveAspectRatio="xMidYMid meet">

<g transform="translate(0.000000,859.000000) scale(0.100000,-0.100000)"
fill="#000000" stroke="none">
<path d="M6620 8542 c-53 -26 -82 -84 -77 -154 4 -67 21 -93 188 -270 60 -64
109 -121 109 -126 0 -13 -727 -732 -740 -732 -6 0 -183 170 -393 378 -510 505
-529 522 -599 522 -79 0 -161 -66 -174 -139 -12 -61 26 -110 279 -367 130
-133 237 -245 237 -250 0 -5 -133 -142 -295 -304 -162 -162 -295 -299 -295
-305 0 -6 79 -89 176 -185 97 -96 221 -224 275 -284 114 -126 121 -145 64
-195 -42 -37 -76 -47 -105 -31 -37 20 -172 143 -378 345 l-197 194 -220 -219
-219 -219 215 -218 c221 -224 349 -366 349 -389 0 -21 -52 -76 -87 -91 -24
-10 -39 -11 -53 -3 -40 21 -147 117 -336 301 -229 222 -235 227 -266 206 -37
-24 -408 -388 -408 -399 0 -6 98 -110 218 -232 119 -122 243 -252 276 -289 68
-78 69 -92 6 -158 -33 -35 -43 -40 -67 -35 -59 15 -146 87 -369 308 -127 125
-235 228 -240 228 -5 -1 -103 -95 -218 -209 l-210 -209 216 -223 c250 -259
284 -298 311 -358 15 -34 17 -49 8 -67 -12 -27 -86 -84 -109 -84 -19 0 -55 32
-349 317 -133 128 -246 233 -251 233 -11 0 -376 -372 -399 -408 -14 -20 -13
-25 10 -55 13 -17 122 -133 241 -256 119 -123 228 -243 242 -267 23 -40 25
-48 14 -74 -14 -33 -73 -90 -94 -90 -21 0 -171 135 -399 359 l-208 205 -214
-214 c-118 -118 -215 -219 -215 -224 0 -5 100 -111 223 -235 244 -248 317
-335 317 -376 0 -38 -68 -105 -105 -105 -40 0 -132 78 -386 328 -119 116 -221
212 -226 212 -16 0 -301 -296 -380 -395 -139 -173 -243 -378 -278 -547 -34
-159 -28 -468 12 -628 23 -95 81 -223 157 -350 l68 -112 -636 -638 -636 -638
0 -124 0 -124 35 -17 c78 -37 119 -18 277 130 51 48 341 333 643 634 l550 548
55 -35 c242 -155 413 -210 685 -221 157 -6 300 7 415 38 95 26 297 125 374
183 131 99 627 586 2402 2358 1023 1022 1864 1858 1869 1858 5 0 113 -103 240
-229 127 -126 253 -243 280 -260 73 -46 126 -39 187 26 58 61 64 137 17 204
-50 69 -98 119 -496 520 -205 207 -373 380 -373 386 0 17 722 744 736 741 7
-2 48 -37 91 -78 192 -186 241 -220 313 -220 23 0 54 7 70 15 l30 16 0 121 0
121 -97 105 c-152 165 -1118 1136 -1313 1320 -96 91 -195 178 -219 194 -52 33
-100 36 -151 10z"/>
</g>
</svg>
